<svg width="661" height="195" viewBox="0 0 661 195" fill="none" xmlns="http://www.w3.org/2000/svg">
<path d="M0 194.468V10.8101H68.2159C122.526 10.8101 134.595 28.9135 134.595 56.4622V64.858C134.595 84.2733 127.249 93.9809 103.636 96.0799V98.4412C129.348 100.015 139.055 114.183 139.055 135.173V148.816C139.055 180.3 130.66 194.468 78.7106 194.468H0ZM49.3253 153.276H68.4782C83.4333 153.276 87.3688 146.979 87.3688 136.747V134.123C87.3688 123.891 83.4333 117.594 68.4782 117.594H49.3253V153.276ZM49.3253 86.6346H66.3793C80.5472 86.6346 84.7451 80.8625 84.7451 70.6301V68.0064C84.7451 57.7741 80.5472 52.0019 66.3793 52.0019H49.3253V86.6346Z" fill="#CD0200"/>
<path d="M197.611 194.468V10.8101H273.698C326.697 10.8101 338.503 28.1264 338.503 59.0859V68.2688C338.503 90.5702 331.682 98.1788 309.38 99.2283V101.852C332.206 103.426 339.29 115.233 339.29 135.173V173.741C339.29 184.498 340.34 188.171 344.8 192.894V194.468H289.178C287.604 190.27 286.816 185.285 286.816 177.677V144.618C286.816 131.237 283.406 125.728 269.762 125.728H249.56V194.468H197.611ZM249.56 86.6346H269.762C283.93 86.6346 288.128 82.1743 288.128 72.4667V67.2193C288.128 56.7246 283.93 52.0019 269.762 52.0019H249.56V86.6346Z" fill="#CD0200"/>
<path d="M364.41 194.468V10.8101H485.887V54.3633H416.359V81.3873H469.357V120.743H416.359V149.865H487.723V194.468H364.41Z" fill="#CD0200"/>
<path d="M509.943 194.468V10.8101H575.535C642.701 10.8101 648.998 33.8985 648.998 90.5702V114.708C648.998 171.38 642.701 194.468 575.535 194.468H509.943ZM561.892 149.865H575.535C592.326 149.865 596.524 143.044 596.524 131.5V73.7786C596.524 62.2343 592.326 55.4127 575.535 55.4127H561.892V149.865Z" fill="#CD0200"/>
<path d="M79.0261 0.450684C106.209 0.450684 122.936 4.97645 132.866 13.0464C142.824 21.1397 145.856 32.7188 145.856 46.5532V54.9487C145.856 64.7014 144.013 72.1216 139.109 77.3608C134.266 82.5358 126.518 85.4955 114.896 86.5806V88.1108C127.603 88.9626 136.453 92.9102 142.135 99.3179C147.874 105.792 150.316 114.705 150.316 125.263V138.907C150.316 154.659 148.225 166.26 139.469 173.879C130.741 181.475 115.5 185.009 89.5212 185.009H10.3601V0.450684H79.0261ZM60.5857 142.917H79.2888C86.7176 142.916 91.2941 141.35 94.0232 138.622C96.7502 135.895 97.7283 131.91 97.7283 126.837V124.214C97.7283 119.142 96.7502 115.158 94.0232 112.431C91.2941 109.702 86.7179 108.135 79.2888 108.135H60.5857V142.917ZM60.5857 76.2749H77.1892C84.2276 76.2749 88.6764 74.8382 91.3728 72.2358C94.0636 69.6388 95.1052 65.788 95.1052 60.7212V58.0972C95.1052 53.0301 94.0638 49.1787 91.3728 46.5815C88.6764 43.9793 84.2275 42.5435 77.1892 42.5435H60.5857V76.2749Z" stroke="#CD0200" stroke-width="0.900857"/>
<path d="M497.147 0.450684V44.9048H427.62V71.0278H480.618V111.284H427.62V139.506H498.984V185.009H374.77V0.450684H497.147ZM586.345 0.450684C619.943 0.450701 638.51 6.21675 648.62 19.2534C653.668 25.7632 656.573 34.0437 658.219 44.2183C659.865 54.3905 660.258 66.4904 660.258 80.6606V104.799C660.258 118.97 659.865 131.069 658.219 141.242C656.573 151.416 653.668 159.697 648.62 166.207C638.51 179.243 619.943 185.009 586.345 185.009H520.302V0.450684H586.345ZM573.152 139.506H586.345C594.697 139.506 599.795 137.806 602.818 134.784C605.838 131.764 606.884 127.324 606.884 121.59V63.8696C606.884 58.1357 605.838 53.6963 602.818 50.6763C599.795 47.6539 594.697 45.9536 586.345 45.9536H573.152V139.506ZM260.821 76.2749H280.573C287.633 76.2749 292.088 75.158 294.782 72.9341C297.45 70.7315 298.488 67.3565 298.488 62.5571V57.3101C298.488 52.108 297.445 48.4669 294.77 46.103C292.078 43.7243 287.63 42.5435 280.573 42.5435H260.821V76.2749ZM356.061 185.009H299.676L299.566 184.717C297.966 180.45 297.176 175.406 297.176 167.767V134.708C297.176 128.026 296.317 123.452 293.871 120.536C291.443 117.642 287.353 116.269 280.573 116.269H260.821V185.009H207.971V0.450684H284.508C311.032 0.450684 327.374 4.77786 337.079 13.0864C346.807 21.4152 349.764 33.6532 349.764 49.1763V58.3599C349.764 69.531 348.061 77.1619 343.445 82.1157C338.885 87.0087 331.578 89.1855 320.641 89.7466V91.5259C331.89 92.3705 339.379 95.7291 344.053 101.43C348.775 107.19 350.551 115.253 350.551 125.263V163.832C350.551 169.206 350.815 172.759 351.616 175.546C352.41 178.312 353.742 180.35 355.938 182.675L356.061 182.806V185.009Z" stroke="#CD0200" stroke-width="0.900857"/>
<path d="M232.708 135.983C232.117 135.748 231.79 135.454 231.726 135.101C231.602 134.441 231.512 132.354 231.456 128.842C231.426 124.973 231.346 121.017 231.217 116.975C231.093 112.177 231.125 109.483 231.316 108.894C231.463 108.308 232.246 107.977 233.665 107.9C235.617 107.795 238.096 107.973 241.102 108.434C241.509 108.546 241.813 108.818 242.014 109.253C242.213 109.642 242.379 110.657 242.512 112.296C242.689 113.933 242.903 116.68 243.156 120.537C243.598 127.098 243.861 131.155 243.944 132.708C244.173 134.475 243.686 135.347 242.484 135.323C236.75 136.255 233.491 136.474 232.708 135.983ZM247.611 146.259C247.904 149.224 248.004 151.088 247.912 151.849C247.864 152.608 247.573 153.002 247.041 153.031C245.157 153.577 243.082 153.867 240.814 153.9C239.614 153.92 238.331 154.056 236.965 154.307C235.511 154.564 233.7 154.817 231.533 155.067C229.278 155.322 227.066 155.552 224.897 155.758C222.819 156.004 221.337 156.172 220.452 156.264C219.612 156.354 218.613 156.408 217.458 156.426C215.321 156.407 214.028 155.943 213.578 155.033C213.48 154.86 213.4 154.62 213.339 154.312C213.276 153.959 213.221 153.361 213.176 152.518C213.128 151.631 213.08 150.321 213.031 148.588C212.914 144.768 212.839 141.302 212.805 138.189C212.756 130.672 212.616 124.762 212.384 120.459C212.174 116.555 212.074 113.868 212.083 112.399C212.093 110.93 212.206 110.124 212.42 109.979C212.537 109.661 213.022 109.59 213.877 109.767C214.73 109.899 216.797 109.876 220.08 109.699C222.387 109.575 223.853 109.519 224.476 109.53C225.097 109.496 225.457 109.566 225.555 109.738C225.693 109.82 225.779 110.171 225.812 110.792C225.89 111.411 225.964 112.786 226.034 114.918C226.238 122.827 226.361 129.65 226.403 135.388C226.422 138.234 226.504 139.743 226.646 139.913C226.794 140.172 227.535 140.31 228.871 140.327C230.204 140.3 232.909 140.132 236.986 139.824C242.13 139.502 245.104 139.364 245.907 139.41C246.395 139.384 246.73 139.811 246.911 140.691C247.133 141.524 247.367 143.38 247.611 146.259ZM249.858 126.516C248.465 122.142 247.539 119.411 247.08 118.323C246.732 117.63 246.554 117.217 246.547 117.084C246.544 117.04 246.608 116.992 246.739 116.94C246.914 116.886 247.156 116.829 247.464 116.768C247.772 116.707 248.169 116.641 248.655 116.57C249.138 116.455 249.733 116.356 250.441 116.274C252.913 115.918 254.853 115.591 256.261 115.293C257.711 114.948 258.878 114.729 259.763 114.637C260.645 114.501 261.157 114.495 261.297 114.621C261.814 115.127 262.896 119.118 264.545 126.593C265.66 131.605 266.398 134.992 266.76 136.752C267.012 138.118 267.278 139.349 267.56 140.446C267.734 141.193 267.87 141.653 267.968 141.826C268.066 141.999 268.202 142.036 268.374 141.938C268.68 141.832 269.14 141.696 269.754 141.53C270.321 141.321 270.669 141.169 270.797 141.073C270.876 140.891 270.941 140.442 270.992 139.728C271.037 138.924 271.169 137.649 271.386 135.902C271.599 134.066 271.821 131.986 272.051 129.659C273.073 121.373 274.209 116.017 275.457 113.592C275.709 113.311 276.41 113.096 277.558 112.945C278.705 112.749 280.344 112.617 282.476 112.546C285.054 112.497 287.04 112.612 288.434 112.893C289.826 113.129 290.604 113.532 290.769 114.102C290.914 114.317 290.52 116.095 289.588 119.438C288.742 122.732 287.92 126.069 287.123 129.448C286.287 132.92 285.335 136.731 284.268 140.881C283.195 144.899 282.381 147.969 281.828 150.09C281.389 151.848 281.045 152.913 280.798 153.282C280.99 153.538 279.553 153.705 276.487 153.781C273.956 153.873 271.983 154.001 270.568 154.166C266.456 154.655 263.443 154.884 261.528 154.853C260.855 154.756 260.142 154.728 259.388 154.768C258.01 154.798 257.215 154.485 257.001 153.829C256.891 153.435 256.729 152.487 256.515 150.985C256.298 149.44 256.025 148.097 255.697 146.958C255.366 145.775 254.934 143.952 254.401 141.489C253.824 139.028 253.296 137.077 252.818 135.634C252.286 134.016 251.299 130.977 249.858 126.516ZM295.307 152.567C294.87 148.586 294.641 143.081 294.618 136.053C294.815 130.614 294.713 126.659 294.313 124.189C294.07 122.156 293.831 119.365 293.595 115.819C293.37 113.295 293.261 111.676 293.267 110.964C293.273 110.252 293.339 109.826 293.465 109.685C293.633 109.498 293.87 109.352 294.176 109.247C294.523 109.094 295.029 108.978 295.692 108.898C296.397 108.771 297.349 108.675 298.546 108.611C303.912 108.277 308.847 107.789 313.351 107.146C315.382 106.859 317.948 106.587 321.049 106.331L325.966 105.933L326.461 106.44C326.783 106.645 326.981 107.013 327.054 107.543C327.127 108.073 327.113 109.053 327.012 110.482C326.99 111.729 326.986 113.309 327 115.221C327.112 117.306 326.94 118.65 326.483 119.253C326.071 119.854 324.999 120.201 323.269 120.294C320.39 120.538 316.98 120.432 313.041 119.977C309.554 119.676 307.374 119.682 306.501 119.996C306.469 120.22 306.572 120.904 306.812 122.048L307.178 123.897L309.374 123.779C310.796 123.747 312.2 123.782 313.585 123.886C315.014 123.987 316.058 123.953 316.716 123.784C317.766 123.46 318.346 123.473 318.453 123.824C318.666 123.634 318.828 124.582 318.94 126.667C319.017 128.087 319.005 129.111 318.905 129.739C318.904 130.54 317.486 131.061 314.652 131.303C312.793 131.492 311.403 131.701 310.481 131.928L309.227 132.196L309.302 136.063L310.366 136.005C312.627 135.839 316.497 135.408 321.976 134.713C325.686 134.202 328.007 133.921 328.939 133.871C329.868 133.776 330.495 133.854 330.82 134.103C331.498 134.289 331.918 134.667 332.082 135.237C332.247 135.806 332.239 136.897 332.058 138.508C331.883 140.208 331.762 141.683 331.696 142.933C331.375 146.064 330.949 148.067 330.418 148.941C330.336 149.079 329.942 149.189 329.234 149.272C328.524 149.31 326.97 149.372 324.572 149.456C320.841 149.568 317.542 149.857 314.675 150.323C311.805 150.744 309.376 151.075 307.387 151.316C305.397 151.557 303.128 151.968 300.579 152.55C298.513 153.018 297.259 153.285 296.818 153.354C296.421 153.419 296.13 153.391 295.946 153.267C295.672 153.148 295.459 152.915 295.307 152.567Z" fill="white"/>
<rect width="261.706" height="73.0558" transform="translate(342.532 94.2485) rotate(-3.0824)" fill="#F3F3F7"/>
<path d="M356.587 153.432L354.079 106.848L367.788 106.11L370.296 152.694L356.587 153.432Z" fill="#0D0D0D"/>
<path d="M376.929 152.336L374.42 105.753L390.258 104.9L399.309 127.972L398.044 104.481L409.557 103.861L412.066 150.444L396.826 151.265L387.08 126.428L388.441 151.716L376.929 152.336Z" fill="#0D0D0D"/>
<path d="M456.013 148.879C438.976 149.796 437.01 143.028 436.247 128.853L435.917 122.731C435.154 108.556 436.382 101.615 453.418 100.698C470.454 99.7807 472.421 106.549 473.184 120.724L473.514 126.846C474.277 141.021 473.049 147.961 456.013 148.879ZM449.843 133.46C449.99 136.188 451.144 137.795 455.403 137.566C459.662 137.336 460.638 135.615 460.491 132.887L459.588 116.117C459.441 113.388 458.286 111.782 454.027 112.011C449.768 112.241 448.793 113.962 448.94 116.69L449.843 133.46Z" fill="#0D0D0D"/>
<path d="M496.548 146.696C483.771 147.384 478.289 144.742 477.748 134.694L477.619 132.298L490.427 130.941C490.456 131.473 490.551 132.002 490.58 132.534C490.849 135.056 492.3 135.979 496.16 135.771C500.086 135.56 501.493 134.416 501.367 132.087C501.264 130.157 500.03 129.556 497.129 128.978L488.493 127.241C480.802 125.719 477.173 122.778 476.793 115.724L476.65 113.062C476.12 103.213 481.442 99.1889 493.221 98.5546C505.599 97.8881 510.458 101.364 510.971 110.88L511.128 113.808L498.842 114.937C498.81 114.338 498.711 113.743 498.679 113.144C498.476 110.619 496.895 109.769 493.501 109.952C489.908 110.146 488.974 111.397 489.06 112.995C489.157 114.791 489.988 115.347 493.835 116.141L502.268 117.823C509.755 119.288 512.54 122.676 512.909 129.53L513.042 131.992C513.637 143.039 508.194 146.069 496.548 146.696Z" fill="#0D0D0D"/>
<path d="M536.739 144.532C521.233 145.366 518.155 140.26 517.413 126.484L515.886 98.135L529.196 97.4183L530.902 129.095C531.049 131.823 532.137 133.433 536.129 133.218C540.122 133.003 541.031 131.286 540.884 128.557L539.178 96.8808L552.488 96.164L554.014 124.513C554.756 138.289 552.244 143.697 536.739 144.532Z" fill="#0D0D0D"/>
<path d="M561.105 142.419L558.596 95.8351L574.434 94.9822L583.486 118.054L582.22 94.5629L593.733 93.943L596.242 140.526L581.002 141.347L571.256 116.51L572.617 141.799L561.105 142.419Z" fill="#0D0D0D"/>
</svg>
