<svg width="43" height="43" viewBox="0 0 43 43" fill="none" xmlns="http://www.w3.org/2000/svg">
<g clip-path="url(#clip0_2880_35486)">
<path d="M21.4582 3.57666C25.7265 3.57666 29.82 5.27225 32.8382 8.29043C35.8564 11.3086 37.552 15.4021 37.552 19.6705C37.552 25.1674 34.555 29.6665 31.397 32.8942C29.8189 34.4891 28.0974 35.9353 26.2541 37.2145L25.4924 37.7331L25.1347 37.9709L24.4606 38.4001L23.8597 38.7667L23.1158 39.1994C22.6107 39.4869 22.0394 39.6381 21.4582 39.6381C20.8769 39.6381 20.3057 39.4869 19.8005 39.1994L19.0566 38.7667L18.1268 38.1944L17.7834 37.9709L17.0503 37.4827C15.0617 36.1368 13.2093 34.6 11.5194 32.8942C8.3614 29.6647 5.36438 25.1674 5.36438 19.6705C5.36438 15.4021 7.05997 11.3086 10.0781 8.29043C13.0963 5.27225 17.1898 3.57666 21.4582 3.57666ZM21.4582 14.3059C20.7537 14.3059 20.0561 14.4446 19.4052 14.7142C18.7544 14.9838 18.163 15.379 17.6648 15.8771C17.1667 16.3753 16.7715 16.9667 16.5019 17.6175C16.2323 18.2684 16.0936 18.966 16.0936 19.6705C16.0936 20.375 16.2323 21.0725 16.5019 21.7234C16.7715 22.3743 17.1667 22.9657 17.6648 23.4638C18.163 23.962 18.7544 24.3571 19.4052 24.6267C20.0561 24.8963 20.7537 25.0351 21.4582 25.0351C22.881 25.0351 24.2455 24.4699 25.2515 23.4638C26.2576 22.4578 26.8228 21.0932 26.8228 19.6705C26.8228 18.2477 26.2576 16.8832 25.2515 15.8771C24.2455 14.8711 22.881 14.3059 21.4582 14.3059Z" fill="#CD0200"/>
</g>
<defs>
<clipPath id="clip0_2880_35486">
<rect width="42.9168" height="42.9168" fill="white"/>
</clipPath>
</defs>
</svg>
