<svg width="16" height="16" viewBox="0 0 16 16" fill="none" xmlns="http://www.w3.org/2000/svg">
<g clip-path="url(#clip0_2880_35468)">
<path d="M13.5 8.00016C13.5 7.53993 13.1269 7.16683 12.6667 7.16683H3.33333C2.8731 7.16683 2.5 7.53993 2.5 8.00016V13.3335C2.5 13.7937 2.8731 14.1668 3.33333 14.1668H12.6667C13.1269 14.1668 13.5 13.7937 13.5 13.3335V8.00016ZM8.16667 10.6668C8.16667 10.5748 8.09205 10.5002 8 10.5002C7.90795 10.5002 7.83333 10.5748 7.83333 10.6668C7.83333 10.7589 7.90795 10.8335 8 10.8335C8.09205 10.8335 8.16667 10.7589 8.16667 10.6668ZM9.16667 10.6668C9.16667 11.3112 8.64433 11.8335 8 11.8335C7.35567 11.8335 6.83333 11.3112 6.83333 10.6668C6.83333 10.0225 7.35567 9.50016 8 9.50016C8.64433 9.50016 9.16667 10.0225 9.16667 10.6668ZM10.8333 4.66683C10.8333 3.91538 10.5346 3.19493 10.0033 2.66357C9.4719 2.13222 8.75145 1.8335 8 1.8335C7.24855 1.8335 6.5281 2.13222 5.99675 2.66357C5.46539 3.19493 5.16667 3.91538 5.16667 4.66683V6.16683H10.8333V4.66683ZM11.8333 6.16683H12.6667C13.6792 6.16683 14.5 6.98764 14.5 8.00016V13.3335C14.5 14.346 13.6792 15.1668 12.6667 15.1668H3.33333C2.32081 15.1668 1.5 14.346 1.5 13.3335V8.00016C1.5 6.98764 2.32081 6.16683 3.33333 6.16683H4.16667V4.66683C4.16667 3.65017 4.57082 2.67543 5.28971 1.95654C6.0086 1.23765 6.98334 0.833496 8 0.833496C9.01666 0.833496 9.9914 1.23765 10.7103 1.95654C11.4292 2.67543 11.8333 3.65017 11.8333 4.66683V6.16683Z" fill="#A0A0A0"/>
</g>
<defs>
<clipPath id="clip0_2880_35468">
<rect width="16" height="16" fill="white"/>
</clipPath>
</defs>
</svg>
