<svg width="19" height="19" viewBox="0 0 19 19" fill="none" xmlns="http://www.w3.org/2000/svg">
<g clip-path="url(#clip0_2894_1333)">
<path d="M16.2064 6.37894L10.2445 10.1684L10.2407 10.1706C9.95508 10.3495 9.63036 10.4547 9.2956 10.4782L9.15186 10.4834C8.76675 10.4834 8.38938 10.375 8.06299 10.1706L8.05927 10.1684L2.09729 6.37894V13.7277C2.09729 14.2542 2.52411 14.681 3.05061 14.681H15.2531C15.7796 14.681 16.2064 14.2542 16.2064 13.7277V6.37894ZM16.2064 4.57582C16.2064 4.04932 15.7796 3.6225 15.2531 3.6225H3.05061C2.52411 3.6225 2.09729 4.04932 2.09729 4.57582V5.02418L8.66924 9.20091H8.66999C8.81442 9.2914 8.98143 9.33944 9.15186 9.33944L9.27847 9.3305C9.3623 9.31869 9.44396 9.29496 9.52127 9.2605L9.63373 9.20091L16.2064 5.02418V4.57582ZM17.3504 13.7277C17.3504 14.886 16.4114 15.825 15.2531 15.825H3.05061C1.8923 15.825 0.953308 14.886 0.953308 13.7277V4.57582C0.953308 3.41751 1.8923 2.47852 3.05061 2.47852H15.2531C16.4114 2.47852 17.3504 3.41751 17.3504 4.57582V13.7277Z" fill="#A0A0A0"/>
</g>
<defs>
<clipPath id="clip0_2894_1333">
<rect width="18.3037" height="18.3037" fill="white"/>
</clipPath>
</defs>
</svg>
