<svg width="19" height="19" viewBox="0 0 19 19" fill="none" xmlns="http://www.w3.org/2000/svg">
<path d="M5.42236 0.953125V0.95387C5.92924 0.950226 6.42023 1.12976 6.80467 1.46032C7.14228 1.75066 7.37745 2.13976 7.4787 2.57005L7.51445 2.75699L7.5152 2.7622H7.51445C7.60534 3.45129 7.77426 4.12784 8.01718 4.77907L8.06484 4.92058C8.16415 5.25555 8.17827 5.61109 8.10506 5.95433C8.02142 6.34639 7.82684 6.706 7.54499 6.99107L7.54275 6.99405L6.88883 7.64722C7.83613 9.17759 9.12562 10.467 10.6559 11.4143L11.3121 10.7582C11.5972 10.4763 11.9575 10.2825 12.3496 10.1988C12.741 10.1154 13.1479 10.1456 13.5226 10.286H13.5233C14.0934 10.4987 14.683 10.6542 15.2833 10.7507L15.5417 10.7887L15.5462 10.7895C16.0556 10.8613 16.5214 11.1179 16.854 11.5104C17.1834 11.8992 17.3592 12.3947 17.35 12.9039V15.1896C17.3512 15.4817 17.292 15.7711 17.175 16.0387C17.058 16.3062 16.886 16.5466 16.6708 16.744C16.4557 16.9412 16.2017 17.0914 15.9253 17.1849C15.6486 17.2785 15.3552 17.3132 15.0643 17.2869L15.0539 17.2862C12.6199 17.0217 10.2818 16.1903 8.22721 14.8589L7.87195 14.6258C6.11369 13.4394 4.61741 11.9027 3.47774 10.1102V10.111C2.14012 8.04609 1.30812 5.69504 1.04826 3.24854L1.04677 3.2396C1.02056 2.94962 1.05512 2.65681 1.14806 2.38087C1.24096 2.10508 1.39057 1.8518 1.58674 1.63683C1.78302 1.42181 2.02201 1.24952 2.28832 1.13187C2.55458 1.01426 2.84257 0.953435 3.13365 0.953125H5.42236ZM3.03608 2.10232C2.93784 2.11266 2.84156 2.13823 2.75083 2.17829C2.62984 2.23173 2.52126 2.31002 2.43206 2.40768C2.34283 2.50543 2.27471 2.62113 2.23246 2.74656C2.1908 2.8704 2.17443 3.00146 2.18554 3.13161C2.4118 5.25644 3.10459 7.30326 4.21135 9.1271L4.4385 9.48906L4.44074 9.49353C5.49625 11.1546 6.88267 12.5785 8.51171 13.6777L8.84091 13.893L8.84538 13.8959C10.7478 15.1296 12.9125 15.9007 15.1663 16.1474H15.1671C15.2993 16.1594 15.4331 16.1438 15.5588 16.1012C15.6845 16.0587 15.8 15.9905 15.8977 15.9009C15.9955 15.8111 16.0732 15.7015 16.1264 15.5799C16.1795 15.4583 16.2066 15.3268 16.206 15.1941V12.9039C16.2061 12.8992 16.2067 12.8944 16.2068 12.8897C16.2126 12.6561 16.1322 12.4283 15.9811 12.25C15.83 12.0716 15.6183 11.955 15.3868 11.9223V11.9215C14.6136 11.8192 13.8541 11.6304 13.1234 11.3577H13.1219C12.9514 11.2937 12.7661 11.2795 12.5879 11.3175C12.4097 11.3555 12.246 11.4441 12.1165 11.5722L11.1505 12.5382C10.9684 12.7202 10.6868 12.7585 10.463 12.6313C8.46428 11.4948 6.80918 9.83959 5.67261 7.84086C5.54533 7.61703 5.58363 7.3355 5.7657 7.15343L6.73392 6.18447C6.86078 6.05526 6.94862 5.8924 6.9864 5.71526C7.02433 5.53711 7.01027 5.35175 6.94618 5.18125L6.94544 5.17976C6.67285 4.44919 6.484 3.69012 6.38164 2.91711L6.36525 2.83221C6.31927 2.63668 6.2125 2.45997 6.05915 2.32799C5.88382 2.17721 5.65955 2.0949 5.42832 2.09711H3.13514L3.03608 2.10232ZM17.3508 6.10105C17.3508 6.41683 17.0945 6.67284 16.7788 6.67305C16.4629 6.67305 16.2068 6.41696 16.2068 6.10105V2.90594L12.6073 6.50547C12.3839 6.72885 12.0211 6.72885 11.7977 6.50547C11.5746 6.28214 11.5746 5.91997 11.7977 5.69664L15.3972 2.09711H12.2028C11.8869 2.09711 11.6309 1.84102 11.6309 1.52512C11.6309 1.20921 11.8869 0.953125 12.2028 0.953125H16.7788C17.0945 0.953326 17.3508 1.20934 17.3508 1.52512V6.10105Z" fill="#D1D1D1"/>
</svg>
