<svg width="19" height="19" viewBox="0 0 19 19" fill="none" xmlns="http://www.w3.org/2000/svg">
<path d="M13.9185 16.0156V14.4903C13.9185 13.8329 13.6571 13.2027 13.1923 12.7378C12.7565 12.3021 12.1753 12.045 11.5627 12.0147L11.4398 12.0117H6.86389C6.20651 12.0117 5.57625 12.273 5.11142 12.7378C4.64658 13.2027 4.38526 13.8329 4.38526 14.4903V16.0156C4.38526 16.3315 4.12917 16.5876 3.81326 16.5876C3.49736 16.5876 3.24127 16.3315 3.24127 16.0156V14.4903C3.24127 13.5295 3.62321 12.6084 4.30259 11.929C4.98196 11.2496 5.90311 10.8677 6.86389 10.8677H11.4398C12.4006 10.8677 13.3218 11.2496 14.0011 11.929C14.6805 12.6084 15.0624 13.5295 15.0624 14.4903V16.0156C15.0624 16.3315 14.8064 16.5876 14.4904 16.5876C14.1745 16.5876 13.9185 16.3315 13.9185 16.0156ZM11.6305 5.33844C11.6305 3.96953 10.5208 2.8598 9.15186 2.8598C7.78295 2.8598 6.67322 3.96953 6.67322 5.33844C6.67322 6.70735 7.78295 7.81707 9.15186 7.81707C10.5208 7.81707 11.6305 6.70735 11.6305 5.33844ZM12.7745 5.33844C12.7745 7.33915 11.1526 8.96105 9.15186 8.96105C7.15114 8.96105 5.52924 7.33915 5.52924 5.33844C5.52924 3.33772 7.15114 1.71582 9.15186 1.71582C11.1526 1.71582 12.7745 3.33772 12.7745 5.33844Z" fill="#A0A0A0"/>
</svg>
